<svg xmlns="http://www.w3.org/2000/svg" width="280" height="280" fill="none"><g opacity=".211"><mask id="a" width="280" height="280" x="0" y="0" mask-type="alpha" maskUnits="userSpaceOnUse"><path fill="#fff" d="M.6.6h278.8v278.8H.6z"/></mask><g mask="url(#a)"><path fill="url(#b)" fill-rule="evenodd" d="M144.29 7.565c3.26-3.302 7.785-5.252 12.417-5.252h100.059c9.637 0 18.696 7.98 18.696 17.65v100.668c0 4.671-2.416 9.058-5.701 12.365l-36.44 36.123a9.612 9.612 0 0 1-1.945 1.945l-69.513 70.057c-3.259 3.284-7.775 5.11-12.389 5.11H44.866l-28.37 28.597c-1.86 1.869-4.222 2.858-6.663 2.858-2.439 0-4.727-.934-6.588-2.802-3.724-3.734-3.419-9.79.306-13.526l30.403-29.895V127.824c0-4.655 1.188-9.066 4.455-12.373L144.29 7.565Zm97.645 13.88h-79.283v80.203l79.283-80.202Zm-98.349 14.618L91.153 89.17v84.219l52.433-52.61V36.063Zm-71.5 72.418-19.066 20v83.852l19.067-19.814v-84.038Zm45.868 64.415h84.622l-53.761 54.205H63.932l54.022-54.205Z" clip-rule="evenodd"/></g></g><defs><linearGradient id="b" x1="138.031" x2="-137.341" y1="-135.373" y2="139.489" gradientUnits="userSpaceOnUse"><stop stop-color="#6DDAD0"/><stop offset=".638" stop-color="#0096FF"/><stop offset="1" stop-color="#005FCB"/></linearGradient></defs></svg>