<svg xmlns="http://www.w3.org/2000/svg" width="166" height="243" fill="none"><path fill="#06558D" fill-rule="evenodd" d="m73.586 232.882 16-66 .972.236-16 66-.972-.236Zm47.974.007-15-66-.976.222 15 66 .976-.222Zm15.998-.007-16-66-.972.236 16 66 .972-.236Z" clip-rule="evenodd"/><path fill="#0088E8" d="M80.072 159.5a9.5 9.5 0 0 1 9.5-9.5h44a9.5 9.5 0 0 1 9.5 9.5 9.5 9.5 0 0 1-9.5 9.5h-44a9.5 9.5 0 0 1-9.5-9.5Z"/><path fill="#FFDAC5" d="m70.162 93-20-10c-6.334 9.666-16.2 30.9-5 38.5 11.2 7.6 21.333-15.833 25-28.5Z"/><path fill="#FFDAC5" fill-rule="evenodd" d="m65.348 200.71 6.206 28.239L62.65 238l27.104-11.468-5.346-32.132" clip-rule="evenodd"/><path fill="#313131" fill-rule="evenodd" d="M69.949 225.584c-.836.488-.075 1.044-1.237 3.26-1.162 2.217-6.89 6.041-10.826 8.134-3.81 2.024-2.295 5.651-.92 5.411l21.675-3.788c1.592-.278 2.99-2.39 3.75-2.546l1.289-.264.386 1.651a.22.22 0 0 0 .25.168l7.146-1.25c.827-.143 1.212-.803 1.043-1.46 0 0-2.09-8.003-2.115-8.721-.027-.719.04-2-.602-2.481-.643-.481-1.154.941-2.345 1.324-3.21 1.033-9.025 2.233-10.968 1.97-1.076-.146-.15-1.182-.658-1.573-.507-.391-5.032-.323-5.868.165Z" clip-rule="evenodd"/><path fill="#515151" fill-rule="evenodd" d="m55.802 240.832 36.67-7.2.144.736-36.67 7.2-.144-.736Z" clip-rule="evenodd"/><path fill="#FFDAC5" fill-rule="evenodd" d="m22.966 196.8-3.624 30.98-11.696 5.02 29.59-.413 5.884-34.256" clip-rule="evenodd"/><path fill="#313131" fill-rule="evenodd" d="M19.114 224.008c-.954.133-.454.929-2.347 2.524-1.893 1.597-8.606 2.954-13.023 3.395-4.275.427-4.208 4.321-2.846 4.617l21.468 4.66c1.577.343 3.65-1.069 4.411-.927l1.291.242-.252 1.658a.222.222 0 0 0 .172.248l7.078 1.537c.818.177 1.418-.284 1.503-.949 0 0 1.015-8.121 1.256-8.79.24-.669.774-1.818.357-2.5-.418-.683-1.415.429-2.66.333-3.353-.257-9.182-1.339-10.882-2.309-.943-.537.296-1.139-.03-1.688-.326-.549-4.542-2.185-5.496-2.051Z" clip-rule="evenodd"/><path fill="#515151" fill-rule="evenodd" d="m.145 232.432 36.67 7.2-.145.736-36.67-7.2.145-.736Z" clip-rule="evenodd"/><path fill="#11182B" fill-rule="evenodd" d="M103.868 120c5.601 7.783 6.978 33.027-9.486 33.027H56.126L46.733 223.2l-27.927-3.629s8.66-68.61 9.808-74.405c2.226-11.233 8.125-21.785 25.017-21.785h30.57" clip-rule="evenodd"/><path fill="#EAEBEE" fill-rule="evenodd" d="M50.348 146.759a5.141 5.141 0 0 1 5.093-4.459h34.313v1H55.44a4.142 4.142 0 0 0-4.102 3.592l-10.115 75.175-.992-.134 10.116-75.174Z" clip-rule="evenodd"/><path fill="#11182B" fill-rule="evenodd" d="M135.73 120c5.615 7.782 8.374 33.024-9.511 33.024h-41.76l8.895 66.268-28.9 3.908s-10.861-72.209-11.829-78.037c-.967-5.827-1.379-21.782 21.128-21.782h42.26" clip-rule="evenodd"/><path fill="#EAEBEE" fill-rule="evenodd" d="M133.987 137.745c1.016-5.589-.495-12.445-4.455-17.434l.783-.622c4.144 5.22 5.722 12.37 4.656 18.235-.534 2.937-1.737 5.583-3.648 7.5-1.919 1.925-4.527 3.088-7.799 3.088H82.378a2.49 2.49 0 0 0-2.368 3.247l.012.037 10.534 67.727-.988.154-10.523-67.653c-.685-2.238.986-4.512 3.333-4.512h41.146c3.015 0 5.365-1.063 7.091-2.794 1.734-1.74 2.865-4.183 3.372-6.973Z" clip-rule="evenodd"/><path fill="#EAEBEE" fill-rule="evenodd" d="m133.599 134.3-.001.5v.5h-.031l-.074-.003a6.277 6.277 0 0 1-.273-.016 10.94 10.94 0 0 1-.993-.126 16.268 16.268 0 0 1-3.413-.992c-2.775-1.133-6.34-3.389-9.572-7.871l.811-.585c3.115 4.319 6.525 6.463 9.139 7.53 1.309.534 2.422.8 3.202.932a10.245 10.245 0 0 0 1.136.129l.055.002h.014Z" clip-rule="evenodd"/><path fill="#fff" d="M73.518 46.8c-12.895.742-10.9 20.402-9.211 31.53 0 4.483 1.842 19.012 4.605 30.141 2.681 10.796 4.606 14.374 6.755 14.529 10.593-.155 23.918-.526 37.918-.155 14.001.371 17.638-9.08 18.987-16.845 3.224-18.548 11.409-48.88-9.776-59.2-21.185-10.32-33.16-.927-49.278 0Z"/><path fill="#fff" d="M62.072 54.769c2-3.167 7.5-9.1 13.5-7.5 18.4 6 1.667 36.5-6 46.5l-21.5-12 14-27Z"/><path fill="#EAEBEE" fill-rule="evenodd" d="M66.996 79.19a463.55 463.55 0 0 0-.924 14.832l-1-.045c.168-3.67.493-9.452.927-14.867.432-5.393.976-10.487 1.59-12.742l.966.263c-.585 2.146-1.125 7.135-1.56 12.559Z" clip-rule="evenodd"/><path fill="#FFDAC5" d="M83.317 40.84c-6.39.913-9.883-5.26-10.947-9.587-1.327-5.392-2.9-20.7 12.169-22.688 8.534-1.127 11.634 5.544 13.434 9.71 1.482 3.428-1.186 9.473-2.867 13.904-1.19 3.257-5.4 7.747-11.79 8.66Z"/><path fill="#FFDAC5" d="m82.369 37.311.484 7.57c1.612.157 5.806.283 9.677-.474 3.87-.757 6.042-2.673 6.042-4.407l-3-8-13.202 5.31Z"/><path fill="#11182B" fill-rule="evenodd" d="M78.72 33.24a.5.5 0 0 1 .706-.056s.011.009.037.023a.77.77 0 0 0 .107.052c.094.04.226.08.399.112.345.063.843.086 1.504-.026 1.346-.227 2.837-.917 3.408-1.234a.5.5 0 0 1 .484.875c-.62.344-2.223 1.092-3.726 1.345-.763.13-1.38.11-1.85.024-.456-.084-.808-.237-1.012-.41a.5.5 0 0 1-.056-.705Z" clip-rule="evenodd"/><path fill="#602C2C" fill-rule="evenodd" d="M75.732 20.133c-.158.092-.198.17-.209.206a.75.75 0 1 1-1.434-.438c.152-.5.51-.843.886-1.063a3.339 3.339 0 0 1 1.235-.4c.814-.108 1.81.011 2.482.489a.75.75 0 0 1-.87 1.222c-.25-.178-.815-.303-1.415-.224a1.855 1.855 0 0 0-.675.208Zm9.348-.732a.75.75 0 0 1 .615-.864 5.318 5.318 0 0 1 2.117.115c.829.215 1.74.674 2.397 1.573a.75.75 0 0 1-1.212.884c-.398-.545-.968-.851-1.561-1.005a3.833 3.833 0 0 0-1.492-.088.75.75 0 0 1-.864-.614Z" clip-rule="evenodd"/><path fill="#11182B" d="m76.731 25.524.494-.083-.333-1.973-.16 2.056Z"/><path fill="#11182B" fill-rule="evenodd" d="M76.87 22.969a.5.5 0 0 1 .515.416l.333 1.973a.5.5 0 0 1-.41.576l-.493.083a.5.5 0 0 1-.582-.532l.16-2.055a.5.5 0 0 1 .477-.461Z" clip-rule="evenodd"/><path fill="#11182B" d="m87.008 26.326.493-.083-.333-1.972-.16 2.055Z"/><path fill="#11182B" fill-rule="evenodd" d="M87.146 23.771a.5.5 0 0 1 .515.417l.333 1.972a.5.5 0 0 1-.41.576l-.493.083a.5.5 0 0 1-.582-.532l.16-2.055a.5.5 0 0 1 .477-.46Z" clip-rule="evenodd"/><path fill="#602C2C" d="M75.407 16.403c-2.782-.021-5.724-.997-4.117-5.192-.402-2.385-3.136-4.867-1.046-6.201 1.672-1.067 5.113.119 6.625.845 1.747-.622 6.264-1.841 10.354-1.746 4.09.095 6.957 3.733 7.879 5.54.997-.496 3.543-.402 5.756 3.934s-1.901 16.455-4.028 21.228l-2.297-1.974c.22-.528 1.114-2.383 1.744-5.236.788-3.567-2.992-12.25-4.503-12.976-1.511-.727-3.971 1.16-6.302 1.062-2.332-.097-4.085-2.254-5.516-2.504-1.43-.249-1.768 3.242-4.55 3.22Z"/><path fill="#FFDAC5" d="M98.577 26.674c-.093 1.832-1.229 3.264-2.537 3.198-1.309-.066-2.294-1.605-2.202-3.437.092-1.832 1.228-3.263 2.537-3.197 1.308.066 2.294 1.604 2.202 3.436Z"/><path fill="#ADADAD" d="M92.368 43.5c-1.909.596-7 .833-9.5.5-1.5 1-2.5 1.5-3.548 2.359.457 1.456 3.523 2.53 5.048 3.14l2.5-4 2.5 4c1 0 3.9-.3 7.5-1.5s5.371-3.666 6.204-5.5l-5-3c0 1.5-2.5 3-5.704 4Z"/><path fill="#76DBD2" d="m40.072 121.5-8-33.5 16 10.5 28.5-10.5 5.5 33.5-28.5 8-13.5-8Z"/><path fill="#FFF3DC" d="m36.572 85.5-3.5 3.5 15 9.5 27.5-9.5-1.5-2.5-26 10.5-11.5-11.5Z"/><path fill="#fff" d="M111.99 66.095c-1.988-3.175-4.953-10.702-.912-15.417 13.378-13.985 33.62 14.309 39.312 25.55l-20.129 14.18-18.271-24.313Z"/><path fill="#EAEBEE" fill-rule="evenodd" d="M113.867 69.038a.5.5 0 0 1 .703.076l15.16 18.847a.5.5 0 0 1-.779.627l-15.16-18.847a.5.5 0 0 1 .076-.703Z" clip-rule="evenodd"/><path fill="#FFDAC5" d="M127.397 107.825c6.005-2.984 5.706-12.894 1.944-19.55l20.879-11.94c12.769 19.734 5.511 47.221-18.189 51.003-18.269 2.916-32.998-6.885-41.271-11.135-8.273-4.249-18.952-17.228-18.2-18.867.6-1.311 1.79-1.467 2.31-1.381-.381-.277-.979-1.06-.315-1.975.664-.916 1.817-1.303 2.311-1.382-.217-.303-.584-1.122-.315-1.975.269-.853 2.416-.723 3.456-.552-3.409-2.325-9.634-7.07-7.264-7.448 2.37-.378 11.083 5.995 15.143 9.229 12.577 7.95 33.507 18.956 39.511 15.973Z"/><path fill="#54D3C7" d="M50.072 98h-4l6.5 31.5h4.5l-7-31.5Z"/><path fill="#FFDAC5" d="M32.112 98.786c.494-2.285 4.321.952 6.173 2.856.412.571 1.111 1.827.617 2.284-.617.572-7.407-2.284-6.79-5.14Z"/><path fill="#FFDAC5" d="M32.112 101.786c.494-2.285 4.321.952 6.173 2.856.412.571 1.111 1.827.617 2.284-.617.572-7.407-2.284-6.79-5.14Z"/><path fill="#FFDAC5" d="M32.112 104.786c.494-2.285 4.321.952 6.173 2.856.412.571 1.111 1.827.617 2.284-.617.572-7.407-2.284-6.79-5.14Z"/><path fill="#FFDAC5" d="M34.106 108.786c.423-2.285 3.704.952 5.291 2.856.353.571.953 1.827.53 2.284-.53.572-6.35-2.284-5.82-5.14Z"/></svg>