<svg xmlns="http://www.w3.org/2000/svg" width="1351" height="1067" fill="none"><path stroke="#fff" stroke-width=".849" d="M406.954 1067.45H-7.444c-3.068 0-5.556-2.87-5.556-6.41V770.201c0-3.54 2.488-6.409 5.556-6.409h414.398c3.069 0 5.557 2.869 5.557 6.409v290.839c0 3.54-2.488 6.41-5.557 6.41Z" clip-rule="evenodd"/><path stroke="#fff" stroke-width=".849" d="M13.884 777.486a3.739 3.739 0 0 1-3.731 3.745 3.738 3.738 0 0 1-3.73-3.745 3.739 3.739 0 0 1 3.73-3.746 3.74 3.74 0 0 1 3.731 3.746Zm14.503 0a3.738 3.738 0 0 1-3.732 3.745 3.738 3.738 0 0 1-3.73-3.745 3.739 3.739 0 0 1 3.73-3.746 3.74 3.74 0 0 1 3.732 3.746Zm14.502 0a3.738 3.738 0 0 1-3.732 3.745 3.738 3.738 0 0 1-3.73-3.745 3.739 3.739 0 0 1 3.73-3.746 3.74 3.74 0 0 1 3.732 3.746Z" clip-rule="evenodd"/><path stroke="#fff" stroke-width=".849" d="M-13 790.632h407.937"/><path fill="#fff" fill-rule="evenodd" d="M1129.83 773.792c-.55 0-1 .448-1 1v5.855H1123c-.55 0-1 .448-1 1v1.427c0 .553.45 1 1 1h5.83v5.855c0 .553.45 1 1 1h1.41c.56 0 1-.447 1-1v-5.855h5.83c.56 0 1-.447 1-1v-1.427c0-.552-.44-1-1-1h-5.83v-5.855c0-.552-.44-1-1-1h-1.41Zm-1107-505a1 1 0 0 0-1 1v5.855H16a1 1 0 0 0-1 1v1.428a1 1 0 0 0 1 1h5.83v5.855a1 1 0 0 0 1 1h1.415a1 1 0 0 0 1-1v-5.855h5.83a1 1 0 0 0 1-1v-1.428a1 1 0 0 0-1-1h-5.83v-5.855a1 1 0 0 0-1-1H22.83ZM513.888 94.93c4.715 0 8.537-3.837 8.537-8.57 0-4.731-3.822-8.568-8.537-8.568-4.715 0-8.537 3.837-8.537 8.569 0 4.732 3.822 8.569 8.537 8.569Zm0-3.428c-2.829 0-5.122-2.302-5.122-5.141 0-2.84 2.293-5.141 5.122-5.141 2.829 0 5.122 2.302 5.122 5.14 0 2.84-2.293 5.142-5.122 5.142ZM88.537 904.929c4.715 0 8.538-3.836 8.538-8.568 0-4.733-3.823-8.569-8.538-8.569S80 891.628 80 896.361c0 4.732 3.822 8.568 8.537 8.568Zm0-3.427c-2.829 0-5.122-2.302-5.122-5.141 0-2.84 2.293-5.142 5.122-5.142 2.83 0 5.123 2.302 5.123 5.142 0 2.839-2.294 5.141-5.123 5.141ZM1238.54 235.929c4.71 0 8.53-3.836 8.53-8.568 0-4.732-3.82-8.569-8.53-8.569-4.72 0-8.54 3.837-8.54 8.569 0 4.732 3.82 8.568 8.54 8.568Zm0-3.427c-2.83 0-5.12-2.302-5.12-5.141 0-2.84 2.29-5.141 5.12-5.141s5.12 2.301 5.12 5.141c0 2.839-2.29 5.141-5.12 5.141Z" clip-rule="evenodd"/><path stroke="#fff" stroke-dasharray="6 6" stroke-linejoin="round" stroke-opacity=".5" stroke-width="2" d="M1290.58 591.106H830.947c-25.006 0 8.909-237.314-28.378-237.314H210.364c-19.434 0-36.153 16.867-37.069 38.787-.975 23.406 15.539 42.727 36.049 42.727h151.318c29.44 0 53.304 26.95 53.304 60.196 0 33.245-23.864 60.198-53.304 60.198H71.097C30.726 555.7-2 592.658-2 638.248c0 45.592 32.725 82.553 73.097 82.553H355.83c23.906 0 43.282 21.882 43.282 48.88 0 26.995-19.376 48.877-43.282 48.877H201.866c-31.599 0-57.215 28.929-57.215 64.617 0 35.69 25.616 64.617 57.215 64.617h926.054c31.6 0 57.22-28.927 57.22-64.612 0-35.685-25.62-64.615-57.22-64.615H877.612c-23.908 0-43.286-21.884-43.286-48.882 0-26.998 19.378-48.882 43.286-48.882h412.968c31.71 0 57.42-29.033 57.42-64.849 0-35.811-25.71-64.846-57.42-64.846Z" clip-rule="evenodd"/><path stroke="#fff" d="M204.037 491.15c0 13.178-10.643 23.858-23.768 23.858-13.126 0-23.769-10.68-23.769-23.858s10.643-23.858 23.769-23.858c13.125 0 23.768 10.68 23.768 23.858ZM1332.5 911.792c0 20.711-16.79 37.5-37.5 37.5s-37.5-16.789-37.5-37.5 16.79-37.5 37.5-37.5 37.5 16.789 37.5 37.5Zm-1191-811c0 20.711-16.789 37.5-37.5 37.5-20.71 0-37.5-16.789-37.5-37.5 0-20.71 16.79-37.5 37.5-37.5 20.711 0 37.5 16.79 37.5 37.5Z"/><g fill="#fff" fill-rule="evenodd" clip-rule="evenodd" opacity=".2"><path d="M1299.13 379.91c-17.37 0-33.69 6.762-45.97 19.04-12.28 12.279-19.04 28.604-19.04 45.968 0 17.364 6.76 33.689 19.04 45.967 12.28 12.278 28.6 19.04 45.97 19.04 17.36 0 33.68-6.762 45.96-19.04 12.28-12.278 19.04-28.603 19.04-45.967 0-17.364-6.76-33.689-19.04-45.968-12.28-12.278-28.6-19.04-45.96-19.04Zm0 134.133c-18.47 0-35.83-7.19-48.88-20.246-13.06-13.056-20.25-30.415-20.25-48.879s7.19-35.823 20.25-48.879c13.05-13.056 30.41-20.247 48.88-20.247 18.46 0 35.82 7.191 48.87 20.247 13.06 13.056 20.25 30.415 20.25 48.879s-7.19 35.823-20.25 48.879c-13.05 13.056-30.41 20.246-48.87 20.246Z"/><path d="M1299.13 379.91c-8.35 0-16.31 6.572-22.43 18.504-6.34 12.386-9.84 28.902-9.84 46.504 0 17.601 3.5 34.117 9.84 46.503 6.12 11.932 14.08 18.504 22.43 18.504 8.34 0 16.3-6.572 22.42-18.504 6.34-12.386 9.84-28.902 9.84-46.503 0-17.602-3.5-34.118-9.84-46.504-6.12-11.932-14.08-18.504-22.42-18.504Zm0 134.133c-10 0-19.29-7.381-26.14-20.782-6.63-12.948-10.27-30.117-10.27-48.343 0-18.227 3.64-35.395 10.27-48.343 6.85-13.402 16.14-20.783 26.14-20.783s19.28 7.381 26.13 20.783c6.63 12.948 10.27 30.116 10.27 48.343 0 18.226-3.64 35.395-10.27 48.343-6.85 13.401-16.13 20.782-26.13 20.782Z"/><path d="M1349.26 491.881c-.35 0-.7-.088-1.02-.274-12.5-7.144-30.4-11.241-49.11-11.241-18.72 0-36.62 4.097-49.11 11.241-1.02.581-2.3.207-2.87-.834-.56-1.041-.2-2.355.82-2.936 13.1-7.49 31.74-11.786 51.16-11.786 19.41 0 38.05 4.296 51.16 11.786 1.01.581 1.37 1.895.81 2.936a2.1 2.1 0 0 1-1.84 1.108m-50.13-78.096c-19.42 0-38.06-4.296-51.16-11.787-1.02-.581-1.38-1.895-.82-2.936.57-1.041 1.85-1.414 2.87-.834 12.49 7.144 30.39 11.241 49.11 11.241 18.71 0 36.61-4.097 49.11-11.241 1.01-.58 2.29-.207 2.86.834.56 1.041.2 2.355-.81 2.936-13.1 7.491-31.75 11.787-51.16 11.787m67.03 33.771h-134.07c-1.16 0-2.09-.945-2.09-2.111 0-1.165.93-2.11 2.09-2.11h134.07c1.16 0 2.09.945 2.09 2.11 0 1.166-.93 2.111-2.09 2.111"/></g></svg>