<svg xmlns="http://www.w3.org/2000/svg" width="1440" height="758" fill="none">
    <g clip-path="url(#a)">
        <path fill="#F4FAFF" d="M0 0h1440v758H0z" />
        <mask id="b" width="1440" height="758" x="0" y="0" mask-type="alpha" maskUnits="userSpaceOnUse">
            <path fill="#fff" d="M0 0h1440v758H0z" />
        </mask>
        <path fill="#E5F4FF" fill-rule="evenodd"
            d="M315.265 236.82c6.283-6.362 15.002-10.119 23.926-10.119h192.797c18.568 0 36.025 15.375 36.025 34.008v193.97c0 9-4.657 17.454-10.985 23.825l-70.215 69.604a18.541 18.541 0 0 1-3.748 3.748l-133.94 134.987c-6.279 6.328-14.979 9.845-23.87 9.845H123.693L69.03 751.791c-3.585 3.6-8.137 5.507-12.84 5.507-4.7 0-9.108-1.8-12.693-5.4-7.176-7.194-6.588-18.864.588-26.061l58.582-57.603V468.539c0-8.97 2.29-17.469 8.584-23.84L315.265 236.82Zm188.147 26.746H350.647v154.537l152.765-154.537Zm-189.503 28.166L212.88 394.06v162.274l101.029-101.369V291.732ZM176.142 431.269l-36.738 38.536v161.568l36.738-38.177V431.269Zm88.379 124.116h163.052L323.985 659.83H160.431l104.09-104.445Z"
            clip-rule="evenodd" />
    </g>
    <defs>
        <clipPath id="a">
            <path fill="#fff" d="M0 0h1440v758H0z" />
        </clipPath>
    </defs>
</svg>