<svg width="1444" height="831" xmlns="http://www.w3.org/2000/svg" xml:space="preserve" id="Layer_1"
	x="0" y="0" style="enable-background:new 0 0 1444 831" version="1.1" viewBox="0 0 1444 831"><style>.st4{fill:none;stroke:#fff}.st5{fill-rule:evenodd;clip-rule:evenodd;fill:#fff}</style><path d="M748 591.5c33.8-34.6 30.1-44 27.9-46.2-2.2-2.2-11.8-6.1-46.3 27.7l-40.9-16.4c-1.2-.5-2.6-.2-3.5.7l-9.2 9.3c-1.5 1.5-1.2 4.1.7 5.2l35.3 19.7c-8.1 8.9-15.5 17.7-21.1 25.1h-17.2c-.9 0-1.7.3-2.3 1l-4.6 4.6c-.8.8-1.1 2-.9 3.1.3 1.1 1.1 2 2.1 2.4l12.8 4.3c-1.6 3.3-2.4 6.6-.2 8.8 2.2 2.2 5.5 1.4 8.8-.2l4.3 12.8c.4 1.1 1.2 1.9 2.3 2.1 1.1.3 2.3-.1 3.1-.9l4.6-4.6c.6-.6 1-1.4 1-2.3v-17.2c7.5-5.7 16.2-13.1 25.1-21.2l19.6 35.4c1.1 2 3.7 2.2 5.2.7l9.2-9.3c.9-.9 1.2-2.3.7-3.5L748 591.5z" style="fill-rule:evenodd;clip-rule:evenodd;fill:#0096ff"/><linearGradient id="SVGID_1_" x1="0" x2="1" y1="831" y2="831" gradientTransform="matrix(0 421.956 -421.956 0 351291 327.13)" gradientUnits="userSpaceOnUse"><stop offset="0" style="stop-color:#6ddad0"/><stop offset="1" style="stop-color:#0096ff"/></linearGradient><path d="M1223.8 431.6c-23.6-1.4-47.6 2.3-70.9-1.5-49.8-8.3-51.9-42.2-96.6-65.7-89.8-47.2-234.1-28.3-331.5 0-81.2 23.6-166.4 70.3-248.8 51.7-90.4-20.5-183.9-47.8-264.8-93C139.8 283.2 81.6 255.9 0 255.2V678.4c29.8 6.8 60.2 12 90.1 16.8 321.9 51.8 660.4 86.9 967-24.1 33.7-12.2 67-26.3 98.6-43.3 35.6-19.2 69-42.2 98-70.4 25.9-25.2 49-64 31.1-95.4-11.8-20.5-37.3-29-61-30.4z" style="fill-rule:evenodd;clip-rule:evenodd;fill:url(#SVGID_1_)"/><linearGradient id="SVGID_00000114756224469811889630000015162285398420802745_" x1="0" x2="1" y1="831" y2="831" gradientTransform="rotate(90 203182.762 203393.957) scale(488.348)" gradientUnits="userSpaceOnUse"><stop offset="0" style="stop-color:#6ddad0"/><stop offset="1" style="stop-color:#0096ff"/></linearGradient><path d="M1345.5 145c-131.9 33.6-244.9 112.5-305.1 212.9-23.5 39.2-44.6 85.9-94.9 101.6-40.2 12.6-81.1.6-120.7-16.4-4-1.8-8.1-3.6-12.1-5.4-16.7-7.6-33.1-15.8-49.1-23.1-151.2-68.9-353.5-56.2-489.7 30.7-30.2 19.3-57.3 41.7-89.2 59.1-31.9 17.4-70.6 29.5-108.6 24.6v165H1443V128c-32.9 3.3-65.5 8.8-97.5 17z" style="fill-rule:evenodd;clip-rule:evenodd;fill:url(#SVGID_00000114756224469811889630000015162285398420802745_)"/><linearGradient id="SVGID_00000018225182233756923140000009594707400086192277_" x1="0" x2="1" y1="831" y2="831" gradientTransform="rotate(90 190407.782 190576.874) scale(457.597)" gradientUnits="userSpaceOnUse"><stop offset="0" style="stop-color:#6ddad0"/><stop offset="1" style="stop-color:#0096ff"/></linearGradient><path d="M1316.8 407.7c-31-11.5-63.8-22.1-97.6-29.9-46-10.7-94.1-16.3-142.3-12.2C916 379.3 809.3 494 648 505.2c-10.6.8-21.1 1-31.5.9-115.3-1.5-219.2-53.3-331.1-78.5-32.5-7.3-65.7-12.4-100-13.4-66.3-1.9-127.9 11.7-185.4 32.9V831h1443V456.7c-42.6-15.6-83.7-33.3-126.2-49z" style="fill-rule:evenodd;clip-rule:evenodd;fill:url(#SVGID_00000018225182233756923140000009594707400086192277_)"/><circle cx="92.5" cy="194.5" r="3" class="st4"/><circle cx="1092.5" cy="378.5" r="3" class="st4"/><path d="M827 170c-.6 0-1 .4-1 1v3h-3c-.6 0-1 .4-1 1s.4 1 1 1h3v3c0 .6.4 1 1 1s1-.4 1-1v-3h3c.6 0 1-.4 1-1s-.4-1-1-1h-3v-3c0-.6-.4-1-1-1zM523 0c-.6 0-1 .4-1 1v3h-3c-.6 0-1 .4-1 1s.4 1 1 1h3v3c0 .6.4 1 1 1s1-.4 1-1V6h3c.6 0 1-.4 1-1s-.4-1-1-1h-3V1c0-.6-.4-1-1-1zM1269 265c-.6 0-1 .4-1 1v5.5h-5.5c-.6 0-1 .4-1 1v1c0 .6.4 1 1 1h5.5v5.5c0 .6.4 1 1 1h1c.6 0 1-.4 1-1v-5.5h5.5c.6 0 1-.4 1-1v-1c0-.6-.4-1-1-1h-5.5V266c0-.6-.4-1-1-1h-1z" class="st5"/><circle cx="881" cy="482" r="7.5" class="st4"/><circle cx="222" cy="502" r="7.5" class="st4"/><circle cx="879.5" cy="45.5" r="3" class="st4"/><circle cx="969" cy="265" r="4.5" class="st4"/><circle cx="1373.5" cy="381.5" r="4" class="st4"/></svg>