<svg width="384" height="386" viewBox="0 0 384 386" fill="none" xmlns="http://www.w3.org/2000/svg">
    <path fill-rule="evenodd" clip-rule="evenodd"
        d="M200.985 8.23674C205.533 3.63053 211.846 0.9104 218.308 0.9104H357.903C371.347 0.9104 383.986 12.0423 383.986 25.5339V165.978C383.986 172.494 380.615 178.615 376.033 183.228L325.194 233.625C324.422 234.662 323.511 235.562 322.48 236.339L225.501 334.076C220.955 338.658 214.655 341.205 208.218 341.205H62.2763L22.6977 381.102C20.1019 383.708 16.8058 385.09 13.4009 385.09C9.99836 385.09 6.80635 383.786 4.21062 381.179C-0.985252 375.971 -0.559654 367.521 4.63623 362.31L47.0522 320.603V176.013C47.0522 169.519 48.7103 163.364 53.2678 158.751L200.985 8.23674ZM337.212 27.6024H226.603V139.495L337.212 27.6024ZM200.003 47.9956L126.853 122.086V239.581L200.003 166.185V47.9956ZM100.252 149.027L73.6523 176.929V293.913L100.252 266.271V149.027ZM164.243 238.894H282.301L207.298 314.517H88.8765L164.243 238.894Z"
        fill="#F4FAFF" />
</svg>